
<svg width="512" height="512" viewBox="0 0 512 512" fill="none" xmlns="http://www.w3.org/2000/svg">
  <rect width="512" height="512" rx="128" fill="#FF7A00"/>
  <path d="M256 128C185.307 128 128 185.307 128 256C128 326.693 185.307 384 256 384C326.693 384 384 326.693 384 256C384 185.307 326.693 128 256 128ZM256 352C203.065 352 160 308.935 160 256C160 203.065 203.065 160 256 160C308.935 160 352 203.065 352 256C352 308.935 308.935 352 256 352Z" fill="white"/>
  <path d="M288 256H256V192C256 183.163 248.837 176 240 176C231.163 176 224 183.163 224 192V272C224 280.837 231.163 288 240 288H288C296.837 288 304 280.837 304 272C304 263.163 296.837 256 288 256Z" fill="white"/>
  <circle cx="377" cy="136" r="40" fill="#56C5FF"/>
</svg>
